<svg xmlns="http://www.w3.org/2000/svg" width="110" height="120.953" viewBox="0 0 110 120.953">
  <g id="Group_623" data-name="Group 623" transform="translate(-226.261 -2358.523)">
    <path id="CashKO_Hand-5" d="M37.6,91.162C15.151,67.664,14.325,71.208,8.463,62.61c-3.6-5.285-5.707-6.152-6.24-10.934C1.19,42.395-.841,34.995.378,33.247c1.156-1.658,6.669,3.4,7.4,11.015.518,5.369,6.208,8.274,6.79,6.245.816-2.845,6.323-13.831-3.192-21.7C8.058,26.058,1.2,35.087.378,33.247c-1.8-4.06,8.89-13.847,13.63-10.942,7.36,4.511,7.41,10.636,8.765,10.921,1.243.262,3.254-5.8.317-15.642C21.727,13.012,18,2.114,20.64,3.028c1.521.526,7.234,5.58,9.129,16.418,1.729,9.889,1.563,15.669,2.953,14.493,1.019-.864,1.02-8.382.167-14.605C31.221,7.2,29.01-.562,31.431.032c2.885.706,8.161,12.1,8.6,21.133.481,9.84,2.26,11.4,3.207,12.257,1.077.973,1.941-5.286.84-12.573-1.025-6.773-.888-11.2,1.31-11.343C47,9.4,52.04,24.277,51.5,28.427c-.676,5.22-1.439,7.02-2.96,12.791C46.49,48.991,43.53,52.578,60.9,71.305,71.642,82.881,51.609,105.828,37.6,91.162Z" transform="translate(249.684 2383.568)" fill="#fe9202"/>
  </g>
</svg>
