<svg xmlns="http://www.w3.org/2000/svg" width="132.111" height="110" viewBox="0 0 132.111 110">
  <g id="Group_622" data-name="Group 622" transform="translate(-204.889 -2070.424)">
    <circle id="Ellipse_273" data-name="Ellipse 273" cx="55" cy="55" r="55" transform="translate(227 2070.424)" fill="rgba(0,0,0,0.05)"/>
    <path id="CashKO_Hand-3" d="M7.954,39.934C21.246,39.026,63.5,44.061,57.492,20.92c-8.293-31.936.079-22.2,5.67-4.516,3.575,11.305,12.616,11.911,19.7,7.323,10.226-6.627-8.494,3.081-10.575-1.8,13-9.044,29.062-1.948,20.513,4.027-7.395,5.166-17.355,6.088-9.4,5.179a20.663,20.663,0,0,0,9.929-3.684c6.219-4.327-5.133-4.652-4.191-5.379,6.349-4.887,19.516,4.1,8.6,11.944a25.64,25.64,0,0,1-5.878,3.323c-6.626,3.109-6.82,4.772-.33,2.283,12.183-4.676-.09-4.331,1.082-5.71,4.348-5.117,17.824,3.356,9.736,8.252-10.545,6.384-18.219,9.226-10.022,7.186,6.412-1.594,8.164-3.2,5.9-8.518-1.368-3.207,10.773,5.5,6.3,9.805-5.643,5.428-20.124,19.434-71.636,23.515C-.248,76.771-7.918,41.017,7.954,39.934Z" transform="translate(204.889 2090.855)" fill="#074ce7"/>
  </g>
</svg>
