<svg xmlns="http://www.w3.org/2000/svg" width="110" height="116.036" viewBox="0 0 110 116.036">
  <g id="Group_621" data-name="Group 621" transform="translate(-227 -1728.982)">
    <circle id="Ellipse_276" data-name="Ellipse 276" cx="55" cy="55" r="55" transform="translate(227 1728.982)" fill="rgba(0,0,0,0.05)"/>
    <path id="CashKO_Hand-9" d="M34.405,85.515C29.638,45.7,9.773,49.87,3.646,48.868s-6.285-5.432,13.472-7.319c6.189-.591-2.114-7.311-6.041-13.409S-1.245,12.193,1.633,10.186s21.557,23.6,22.081,20.6c.28-1.6,2.649-6.517,5.157-4.53,7.37,5.844,4.728-4.273,7.94-3.279s5.7,1.939,5.743.358c.138-4.74-5.677-21.79-1.772-23.326C43.267-.963,62.708,52.253,62.64,80.225,62.593,99.731,36.366,101.888,34.405,85.515Z" transform="translate(249.684 1748.549)" fill="#ff2600"/>
  </g>
</svg>
